<svg width="128" height="128" viewBox="0 0 128 128" fill="none" xmlns="http://www.w3.org/2000/svg">
<rect width="128" height="128" rx="50" fill="#04A5E5"/>
<g clip-path="url(#clip0_324_6)">
<path d="M53.6792 101.833L52.1625 89.7C51.341 89.384 50.5668 89.0049 49.8401 88.5625C49.1134 88.1201 48.4024 87.6462 47.7073 87.1406L36.4271 91.8802L26 73.8698L35.7635 66.476C35.7003 66.0337 35.6687 65.6071 35.6687 65.1964V62.637C35.6687 62.2262 35.7003 61.7997 35.7635 61.3573L26 53.9635L36.4271 35.9531L47.7073 40.6927C48.4024 40.1872 49.1292 39.7132 49.8875 39.2708C50.6458 38.8285 51.4042 38.4493 52.1625 38.1333L53.6792 26H74.5333L76.05 38.1333C76.8715 38.4493 77.6457 38.8285 78.3724 39.2708C79.0991 39.7132 79.8101 40.1872 80.5052 40.6927L91.7854 35.9531L102.212 53.9635L92.449 61.3573C92.5122 61.7997 92.5437 62.2262 92.5437 62.637V65.1964C92.5437 65.6071 92.4806 66.0337 92.3542 66.476L102.118 73.8698L91.6906 91.8802L80.5052 87.1406C79.8101 87.6462 79.0833 88.1201 78.325 88.5625C77.5667 89.0049 76.8083 89.384 76.05 89.7L74.5333 101.833H53.6792ZM64.2958 77.1875C67.9611 77.1875 71.0892 75.892 73.6802 73.301C76.2712 70.7101 77.5667 67.5819 77.5667 63.9167C77.5667 60.2514 76.2712 57.1233 73.6802 54.5323C71.0892 51.9413 67.9611 50.6458 64.2958 50.6458C60.5674 50.6458 57.4234 51.9413 54.8641 54.5323C52.3047 57.1233 51.025 60.2514 51.025 63.9167C51.025 67.5819 52.3047 70.7101 54.8641 73.301C57.4234 75.892 60.5674 77.1875 64.2958 77.1875ZM64.2958 69.6042C62.716 69.6042 61.3731 69.0512 60.2672 67.9453C59.1613 66.8394 58.6083 65.4965 58.6083 63.9167C58.6083 62.3368 59.1613 60.9939 60.2672 59.888C61.3731 58.7821 62.716 58.2292 64.2958 58.2292C65.8757 58.2292 67.2186 58.7821 68.3245 59.888C69.4304 60.9939 69.9833 62.3368 69.9833 63.9167C69.9833 65.4965 69.4304 66.8394 68.3245 67.9453C67.2186 69.0512 65.8757 69.6042 64.2958 69.6042ZM60.3146 94.25H67.8031L69.1302 84.2021C71.0892 83.6965 72.9061 82.954 74.5807 81.9745C76.2554 80.995 77.7878 79.8101 79.1781 78.4198L88.5625 82.3063L92.2594 75.8604L84.1073 69.699C84.4233 68.8142 84.6444 67.8821 84.7708 66.9026C84.8972 65.9231 84.9604 64.9278 84.9604 63.9167C84.9604 62.9056 84.8972 61.9102 84.7708 60.9307C84.6444 59.9512 84.4233 59.0191 84.1073 58.1344L92.2594 51.9729L88.5625 45.5271L79.1781 49.5083C77.7878 48.0549 76.2554 46.8384 74.5807 45.8589C72.9061 44.8793 71.0892 44.1368 69.1302 43.6313L67.8979 33.5833H60.4094L59.0823 43.6313C57.1233 44.1368 55.3064 44.8793 53.6318 45.8589C51.9571 46.8384 50.4247 48.0233 49.0344 49.4135L39.65 45.5271L35.9531 51.9729L44.1052 58.0396C43.7892 58.9875 43.5681 59.9354 43.4417 60.8833C43.3153 61.8313 43.2521 62.8424 43.2521 63.9167C43.2521 64.9278 43.3153 65.9073 43.4417 66.8552C43.5681 67.8031 43.7892 68.751 44.1052 69.699L35.9531 75.8604L39.65 82.3063L49.0344 78.325C50.4247 79.7785 51.9571 80.995 53.6318 81.9745C55.3064 82.954 57.1233 83.6965 59.0823 84.2021L60.3146 94.25Z" fill="#EFF1F5"/>
</g>
<defs>
<clipPath id="clip0_324_6">
<rect width="99" height="99" fill="white" transform="translate(15 8)"/>
</clipPath>
</defs>
</svg>
